<?xml version="1.0" standalone="no"?>
<!DOCTYPE svg PUBLIC "-//W3C//DTD SVG 20010904//EN"
 "http://www.w3.org/TR/2001/REC-SVG-20010904/DTD/svg10.dtd">
<svg version="1.0" xmlns="http://www.w3.org/2000/svg"
 width="512.000000pt" height="512.000000pt" viewBox="0 0 512.000000 512.000000"
 preserveAspectRatio="xMidYMid meet">
<metadata>
Created by potrace 1.14, written by Peter Selinger 2001-2017
</metadata>
<g transform="translate(0.000000,512.000000) scale(0.100000,-0.100000)"
fill="#000000" stroke="none">
<path d="M3070 4392 c0 -13 -4 -20 -10 -17 -6 4 -7 11 -4 17 5 8 -1 9 -17 4
-117 -35 -173 -46 -179 -35 -6 8 -9 8 -12 -2 -4 -12 -8 -11 -23 1 -22 18 -56
14 -108 -13 -32 -16 -43 -18 -58 -9 -15 10 -35 6 -104 -17 -48 -16 -96 -26
-107 -23 -16 4 -19 2 -13 -9 7 -12 6 -12 -7 -1 -13 11 -22 9 -54 -13 -21 -14
-49 -28 -63 -32 -14 -3 -31 -10 -38 -15 -7 -5 -14 -5 -17 1 -5 7 -19 5 -41 -4
-19 -8 -51 -22 -70 -30 -21 -9 -37 -11 -40 -4 -8 11 -55 -14 -103 -54 -21 -17
-40 -26 -51 -22 -11 3 -38 -8 -70 -31 -29 -19 -64 -37 -78 -38 -14 -2 -37 -13
-53 -26 -15 -12 -53 -36 -85 -54 -33 -17 -60 -36 -62 -42 -3 -8 38 -13 139
-16 129 -4 152 -8 238 -37 94 -32 262 -114 310 -151 70 -55 -58 -49 -490 22
-112 18 -228 30 -293 31 l-107 2 -61 -62 c-47 -49 -66 -63 -89 -63 -17 0 -30
-4 -30 -9 0 -5 -37 -14 -83 -21 -45 -7 -89 -18 -97 -24 -29 -23 -110 -57 -120
-51 -5 3 -10 2 -10 -3 0 -6 -13 -15 -30 -20 -16 -6 -50 -25 -75 -42 -25 -17
-49 -29 -54 -26 -4 3 -17 -3 -28 -13 -11 -10 -34 -22 -51 -26 -18 -3 -32 -10
-32 -15 0 -12 -89 -60 -111 -60 -10 0 -24 -8 -31 -18 -7 -11 -30 -24 -50 -31
-21 -7 -40 -17 -43 -22 -4 -5 -19 -9 -34 -9 -38 0 -44 -10 -70 -107 -81 -304
-99 -612 -55 -928 56 -403 233 -812 492 -1135 306 -382 754 -672 1232 -796
462 -120 991 -90 1432 82 323 126 592 306 844 565 349 359 562 806 636 1334
19 134 16 465 -6 605 -39 259 -111 489 -222 713 -38 79 -51 97 -73 101 -14 3
-127 22 -251 42 -300 49 -428 50 -690 6 -336 -56 -498 -70 -507 -46 -6 17 156
108 272 153 141 56 206 65 415 58 214 -7 305 -25 567 -112 218 -71 207 -76
120 55 -105 157 -237 312 -364 426 l-73 65 -102 3 c-57 2 -125 -1 -152 -5 -54
-10 -116 5 -116 28 0 7 -4 13 -10 13 -5 0 -10 -7 -10 -15 0 -8 -4 -15 -10 -15
-5 0 -10 7 -10 15 0 10 -9 15 -27 15 -16 -1 -66 -2 -113 -2 -47 0 -100 -1
-117 -1 -18 0 -41 7 -52 17 -18 17 -19 17 -24 -1 -4 -17 -5 -17 -6 1 -1 15 -7
17 -38 13 -193 -29 -185 -29 -199 -10 -12 17 -13 16 -14 -5z m-1255 -891 c102
-26 262 -106 345 -174 82 -67 171 -172 221 -262 45 -81 96 -230 105 -310 l7
-55 38 44 c22 25 59 54 82 65 83 40 194 18 251 -50 25 -30 25 -30 30 -7 46
212 103 332 224 476 98 115 283 229 449 274 112 31 334 30 448 0 406 -110 678
-461 678 -877 0 -260 -80 -452 -268 -640 -112 -112 -201 -169 -338 -216 -200
-69 -429 -64 -627 13 -216 84 -409 272 -502 490 -34 81 -68 228 -68 299 0 104
-92 209 -184 209 -89 0 -198 -113 -211 -218 -29 -251 -119 -439 -288 -598
-459 -437 -1221 -264 -1457 331 -48 120 -63 220 -57 364 6 154 24 226 88 358
125 261 363 444 646 498 102 19 281 13 388 -14z m845 -2047 c-53 -109 -168
-188 -320 -220 -79 -17 -174 -15 -374 7 -93 11 -99 10 -118 -9 -11 -11 -26
-43 -32 -71 -6 -29 -16 -53 -21 -54 -15 -3 -54 103 -55 147 0 79 57 128 180
156 30 6 163 15 295 19 l240 7 76 36 c42 19 94 47 115 62 39 26 39 26 42 5 2
-12 -10 -50 -28 -85z m249 5 c50 -20 83 -23 296 -30 132 -4 256 -12 276 -18
97 -30 143 -91 136 -183 -4 -48 -43 -145 -54 -134 -2 1 -10 30 -19 62 -23 89
-35 97 -120 84 -105 -18 -317 -15 -397 4 -166 39 -276 144 -295 279 l-5 38 63
-40 c34 -22 87 -50 119 -62z"/>
<path d="M1430 3458 c-30 -6 -56 -11 -58 -13 -1 -1 77 -227 174 -501 214 -606
288 -818 320 -907 17 -49 20 -67 10 -64 -7 3 -51 1 -97 -5 -66 -8 -89 -15
-109 -33 l-25 -24 -162 362 c-89 199 -226 505 -304 680 l-142 318 -39 -38
c-98 -95 -190 -249 -228 -385 -32 -113 -37 -279 -12 -402 52 -248 215 -463
442 -580 120 -62 212 -87 350 -93 125 -6 184 3 335 52 254 83 462 312 536 590
30 113 30 298 0 410 -104 388 -436 648 -826 644 -60 -1 -135 -6 -165 -11z"/>
<path d="M3635 3458 c-27 -5 -51 -11 -53 -13 -4 -3 40 -129 343 -980 119 -335
219 -612 222 -615 7 -7 91 41 157 91 158 120 270 290 316 482 27 112 27 282 0
395 -76 318 -335 571 -652 636 -84 18 -252 20 -333 4z"/>
<path d="M3173 3206 c-308 -329 -312 -826 -9 -1163 95 -105 252 -201 398 -244
92 -26 338 -40 338 -18 0 18 -653 1489 -661 1489 -4 0 -34 -29 -66 -64z"/>
</g>
</svg>
